<svg viewBox="0 0 1200 1200" xmlns="http://www.w3.org/2000/svg">
  <path
    d="m931.2 444h-44.398v-2.3984-152.4c0-105.6-86.398-192-192-192h-176.4c-105.6 0-192 86.398-192 192v153.6 2.3984h-58.801c-48 0-87.602 39.602-87.602 87.602v495.6c0 48 39.602 87.602 87.602 87.602h663.6c48 0 87.602-39.602 87.602-87.602v-495.6c0-49.199-39.602-88.801-87.602-88.801zm-508.8-1.1992v-153.6c0-52.801 43.199-96 96-96h176.4c52.801 0 96 43.199 96 96v153.6 2.3984h-368.4v-2.3984zm500.4 577.2h-646.8v-480h646.8z"
    fill="#335BF1" stroke="#335BF1" stroke-width="20" stroke-linecap="round" stroke-linejoin="round" />
</svg>
