<svg viewBox="0 0 1200 1200" xmlns="http://www.w3.org/2000/svg">
  <path
    d="m931.2 444h-508.8v-2.3984-152.4c0-52.801 43.199-96 96-96h177.6c52.801 0 96 43.199 96 96v9.6016c0 26.398 21.602 48 48 48s48-21.602 48-48v-9.6016c0-105.6-86.398-192-192-192h-177.6c-105.6 0-192 86.398-192 192v153.6 2.3984h-57.602c-48 0-87.602 39.602-87.602 87.602v495.6c0 48 39.602 87.602 87.602 87.602h663.6c48 0 87.602-39.602 87.602-87.602v-495.6c0-49.199-39.602-88.801-88.801-88.801zm-7.1992 576h-648v-480h648z"
    fill="#335BF1" stroke="#335BF1" stroke-width="20" stroke-linecap="round" stroke-linejoin="round" />
</svg>
