<svg xmlns="http://www.w3.org/2000/svg" viewBox="0 0 746.89 280.13"><defs><style>.cls-1{isolation:isolate;}.cls-2{fill:#e6e6e6;mix-blend-mode:multiply;}.cls-3{fill:#ffba00;}</style></defs><g class="cls-1"><g id="Layer_2" data-name="Layer 2"><g id="Layer_1-2" data-name="Layer 1"><ellipse class="cls-2" cx="102.26" cy="263.32" rx="102.26" ry="16.81"/><path d="M203.9,194.05c-1.51-4.52-5.4-8.27-7.8-12.17-4.48-7.3-2.81-15.92-1.11-23.77,2-9.22,2-13.79,2.8-23.19a219.23,219.23,0,0,0-2.1-53.55C192.85,64,187.25,47.26,184,30c-1.91-10-5.42-18.67-9.35-28-1.17-2.8-2-2.37-3.47-.32a214.17,214.17,0,0,0-16.37,28.81c-1.26,2.6-13.66,29.39-12.34,29.78-7.07-2.06-17.45-5.5-38.46-5.5-19.56,0-29.3,2.83-36.5,5.5.05,0-3-7.33-3.26-7.82C57.23,38.34,50.12,24.26,42,10.85,41,9.19,37.35.37,34.81,1.78c-4.7,2.61-6.49,13.47-7.8,18.29-5.51,20.13-11,41.26-13.65,62C10,108.47,8.52,135,11.57,161.49c.47,4.08,1.2,8.89.16,12.88-1.63,6.26-7.59,10.34-9.76,16.4-2.11,5.86,1.76,10.63,7.35,11,1.41.09,13.49-3.17,13.07-5.19.6,2.91,1,5.08,1.51,7.22,3.23,13.59,16.11,54.55,27.42,61,7.29,4.18,13.28-.07,13.36-8.87,0-1.43-.15-2.87-.25-4.7A118,118,0,0,0,104,258.47a127.52,127.52,0,0,0,41.52-7.21c-.1,1.83-.27,3.27-.25,4.7.08,8.8,6.07,13,13.36,8.87,6.75-3.88,10.32-13.48,13-20.59,3.92-10.38,8-26.05,10.59-36.89.51-2.14.9-4.31,1.51-7.22-.24,1.15,10.11,4.86,11.32,5,4.11.57,8.58-.72,9.34-5.66A11.37,11.37,0,0,0,203.9,194.05ZM73.53,117.12a11.55,11.55,0,1,1-11.36,11.54A11.45,11.45,0,0,1,73.53,117.12ZM46.18,177.44,42.52,176s1.4-4.89,1.9-6.72l5.17-15.82,9.24,27A90.69,90.69,0,0,1,46.18,177.44Zm15.13,3.38c3.91-7.63,11.47-18.82,15-25l2.55,6.93c2.21,6.53,5.07,13.93,6.94,20.69C76.81,182.88,68.55,182,61.31,180.82Zm45.29,3.24c-6,0-11.91-.15-17.54-.44l16.35-27.7c4.42,9.27,8.7,18.61,13,28C114.55,184,110.61,184.06,106.6,184.06Zm15.46-.34c4.59-9.73,8.1-19.57,12.34-27.8,4.29,9.9,6.57,15.83,11.14,25.82C138.4,182.67,130.49,183.35,122.06,183.72Zm15.54-43.51A11.55,11.55,0,1,1,149,128.66,11.46,11.46,0,0,1,137.6,140.21ZM168.84,177a131.77,131.77,0,0,1-19.55,4.21l16.09-27.77,3.77,23.05A2.32,2.32,0,0,1,168.84,177Z"/><path class="cls-3" d="M334.74,131.35c2.69,3.25,6.55,4.9,11.48,4.9a15.78,15.78,0,0,0,9.22-2.73,10.49,10.49,0,0,0,0-17.51,15.73,15.73,0,0,0-9.22-2.74H302.34A16.14,16.14,0,0,0,293,116a10.22,10.22,0,0,0-4.71,8.79v53.5a10.1,10.1,0,0,0,4.78,8.71,15.71,15.71,0,0,0,9.23,2.82h43.88a15.72,15.72,0,0,0,9.22-2.81,10.15,10.15,0,0,0,4.71-8.72,10.36,10.36,0,0,0-4.68-8.77,15.41,15.41,0,0,0-9.25-2.91c-4.94,0-8.8,1.67-11.49,5H316.28V131.35Z"/><path class="cls-3" d="M424.72,158.07a15.28,15.28,0,0,0,9.1-2.79,9.84,9.84,0,0,0,4.83-8.58V124.88a10.3,10.3,0,0,0-4.77-8.78,15.37,15.37,0,0,0-9.16-2.83h-44a16.4,16.4,0,0,0-9.35,2.85,10.47,10.47,0,0,0-4.5,8.76v53.35a10.07,10.07,0,0,0,4.7,8.78,15.55,15.55,0,0,0,9.15,2.82h44a15.28,15.28,0,0,0,9.13-2.81,10,10,0,0,0,4.8-8.79,10.23,10.23,0,0,0-4.77-8.7,15.32,15.32,0,0,0-9.16-2.83c-4.94,0-8.78,1.67-11.42,5H394.85v-13.6Zm-29.87-26.8H410.7v8.8H394.85Z"/><path class="cls-3" d="M502.92,116a16.15,16.15,0,0,0-9.29-2.73H461.16a16.12,16.12,0,0,0-9.3,2.74,10.23,10.23,0,0,0-4.72,8.79v53.5a10.09,10.09,0,0,0,4.79,8.71,16.52,16.52,0,0,0,18.45,0,10.18,10.18,0,0,0,4.71-8.72v-47h7.15c2.73,3.25,6.56,4.9,11.39,4.9a15.79,15.79,0,0,0,9.21-2.72,10.12,10.12,0,0,0,4.8-8.73A10.24,10.24,0,0,0,502.92,116Z"/><path class="cls-3" d="M580.8,116a15.76,15.76,0,0,0-9.23-2.74H541.63V100.42a10.37,10.37,0,0,0-4.69-8.78,15.45,15.45,0,0,0-9.25-2.83,15.62,15.62,0,0,0-9.32,2.82,10.38,10.38,0,0,0-4.69,8.79V178.3a10.1,10.1,0,0,0,4.78,8.71,15.71,15.71,0,0,0,9.23,2.82h43.88a15.7,15.7,0,0,0,9.22-2.81,10.16,10.16,0,0,0,4.72-8.72V124.8A10.24,10.24,0,0,0,580.8,116Zm-23.24,55.58H541.63V131.35h15.93Z"/><path class="cls-3" d="M661.49,116a15.73,15.73,0,0,0-9.22-2.74H608.39a16.12,16.12,0,0,0-9.3,2.74,10.22,10.22,0,0,0-4.71,8.79v53.5a10.08,10.08,0,0,0,4.78,8.71,15.69,15.69,0,0,0,9.23,2.82h43.88a15.72,15.72,0,0,0,9.22-2.81,10.18,10.18,0,0,0,4.71-8.72V124.8A10.24,10.24,0,0,0,661.49,116Zm-23.24,55.58H622.32V131.35h15.93Z"/><path class="cls-3" d="M742.21,145.23a15.33,15.33,0,0,0-9.25-2.92H703v-11h18c2.87,4.9,6.89,7.38,12,7.38a14.59,14.59,0,0,0,13.93-13.93,10.23,10.23,0,0,0-4.7-8.79,15.76,15.76,0,0,0-9.23-2.74H689.08a16.14,16.14,0,0,0-9.3,2.74,10.24,10.24,0,0,0-4.71,8.79v24.31a10.11,10.11,0,0,0,4.79,8.71,15.8,15.8,0,0,0,9.22,2.73H719v11H700.5c-2.64-3.3-6.48-5-11.42-5a15.81,15.81,0,0,0-9.34,2.84,10.56,10.56,0,0,0-4.67,8.84,10.1,10.1,0,0,0,4.78,8.71,15.71,15.71,0,0,0,9.23,2.82H733a15.7,15.7,0,0,0,9.22-2.81,10.15,10.15,0,0,0,4.71-8.72V154A10.33,10.33,0,0,0,742.21,145.23Z"/><path d="M361.74,231.64a8,8,0,1,1,0-16,7.52,7.52,0,0,1,7.58,5.82h-3.11a4.87,4.87,0,0,0-9.29,2.18,4.84,4.84,0,0,0,4.82,5,4.73,4.73,0,0,0,4.45-2.93h3.17a7.6,7.6,0,0,1-7.62,5.93Z"/><path d="M386.35,222.06v9.21h-3.14v-8.56c0-2.77-1.19-4.25-3.51-4.25s-4.11,1.92-4.11,4.63v8.18h-3.14V210.51h3.14v7.21a6.58,6.58,0,0,1,5-2.08C384.12,215.64,386.35,218.12,386.35,222.06Z"/><path d="M405.14,223.67c0,.34,0,.68-.06,1H392.67a4.5,4.5,0,0,0,4.68,4,4.59,4.59,0,0,0,4.11-2.24h3.31a7.92,7.92,0,1,1-7.42-10.85c4.68,0,7.79,3.61,7.79,8.06Zm-12.39-1.53H402a4.56,4.56,0,0,0-4.64-3.69A4.52,4.52,0,0,0,392.75,222.14Z"/><path d="M415.36,231.64a8,8,0,1,1,0-16,7.52,7.52,0,0,1,7.58,5.82h-3.11a4.92,4.92,0,1,0-4.48,7.2,4.76,4.76,0,0,0,4.46-2.93H423a7.6,7.6,0,0,1-7.63,5.93Z"/><path d="M431.44,224.75h-1.9v6.52H426.4V210.51h3.14V221.9h1.92l4.13-5.91h3.72l-5.17,7.33,5.72,8H436Z"/><path d="M462.89,216l-7,15.56c-1.72,3.84-3.24,5.2-6.36,5.2H448v-2.83h1.31c2,0,2.64-.59,3.76-3l.35-.72L446.71,216h3.42L455,226.65,459.54,216Z"/><path d="M463.7,223.63a8.17,8.17,0,1,1,8.17,8A7.88,7.88,0,0,1,463.7,223.63Zm13.14,0a5,5,0,1,0-5,5A4.81,4.81,0,0,0,476.84,223.63Z"/><path d="M490.1,231.64c-4.2,0-7-2.71-7-6.82V216h3.14v8.39c0,2.65,1.45,4.26,3.81,4.26s3.8-1.64,3.8-4.26V216H497v8.83c0,4.11-2.72,6.82-6.94,6.82Z"/><path d="M510,215.9v3h-1.66c-2.6,0-3.9,1.48-3.9,4.25v8.15h-3.14V216h2.13l.53,2.08a5.43,5.43,0,0,1,4.68-2.17Z"/><path d="M527,215.61a8,8,0,0,1,0,16,7.63,7.63,0,0,1-5.08-1.85v6.95h-3.14V216h2.12l.59,1.87a7.62,7.62,0,0,1,5.51-2.24Zm4.74,8a5,5,0,1,0-5,5A4.86,4.86,0,0,0,531.75,223.63Z"/><path d="M552.81,223.67a9.06,9.06,0,0,1-.07,1h-12.4a4.49,4.49,0,0,0,4.68,4,4.6,4.6,0,0,0,4.11-2.24h3.31A7.92,7.92,0,1,1,545,215.61c4.67,0,7.79,3.61,7.79,8.06Zm-12.39-1.53h9.24a4.58,4.58,0,0,0-4.64-3.69A4.51,4.51,0,0,0,540.42,222.14Z"/><path d="M564.84,215.9v3h-1.66c-2.6,0-3.89,1.48-3.89,4.25v8.15h-3.15V216h2.13l.53,2.08a5.43,5.43,0,0,1,4.68-2.17Z"/><path d="M589.78,221.55v9.72h-3.14v-9c0-2.46-1.07-3.86-3-3.86s-3.59,1.85-3.59,4.45v8.36H577v-9c0-2.46-1.06-3.86-3-3.86s-3.6,1.85-3.6,4.45v8.36h-3.15V216h2.23l.54,2a6.13,6.13,0,0,1,4.75-2.32,5,5,0,0,1,4.59,2.68,6,6,0,0,1,5-2.68C587.61,215.64,589.78,218.09,589.78,221.55Z"/><path d="M594,210.38h3.24v3.24H594Zm0,5.61h3.14v15.28H594Z"/><path d="M600.49,226.42h3.07c.08,1.62,1.44,2.46,3.28,2.46,1.69,0,3-.72,3-2,0-1.45-1.64-1.78-3.51-2.1-2.55-.44-5.55-1-5.55-4.56,0-2.74,2.37-4.62,5.92-4.62s5.86,1.94,5.92,4.9h-3c-.07-1.45-1.17-2.23-3-2.23s-2.81.74-2.81,1.85c0,1.35,1.56,1.62,3.4,1.92,2.59.43,5.72.93,5.72,4.7,0,3-2.47,4.89-6.2,4.89S600.57,229.59,600.49,226.42Z"/><path d="M615.15,226.42h3.07c.08,1.62,1.44,2.46,3.28,2.46s3-.72,3-2c0-1.45-1.64-1.78-3.51-2.1-2.55-.44-5.55-1-5.55-4.56,0-2.74,2.37-4.62,5.92-4.62s5.86,1.94,5.92,4.9h-3c-.06-1.45-1.16-2.23-3-2.23s-2.81.74-2.81,1.85c0,1.35,1.56,1.62,3.4,1.92,2.59.43,5.72.93,5.72,4.7,0,3-2.47,4.89-6.2,4.89S615.23,229.59,615.15,226.42Z"/><path d="M630.92,210.38h3.24v3.24h-3.24ZM631,216h3.14v15.28H631Z"/><path d="M637.46,223.63a8.17,8.17,0,1,1,8.17,8A7.88,7.88,0,0,1,637.46,223.63Zm13.14,0a5,5,0,1,0-5,5A4.81,4.81,0,0,0,650.6,223.63Z"/><path d="M665.24,215.64c3.57,0,5.8,2.66,5.8,6.43v9.2H667.9v-8.56c0-2.78-1.21-4.25-3.51-4.25s-4.1,1.93-4.1,4.63v8.18h-3.14V216h2.19l.61,2.13a6.45,6.45,0,0,1,5.29-2.48Z"/><path d="M674.16,226.42h3.07c.08,1.62,1.44,2.46,3.28,2.46s3-.72,3-2c0-1.45-1.64-1.78-3.51-2.1-2.55-.44-5.55-1-5.55-4.56,0-2.74,2.37-4.62,5.93-4.62s5.85,1.94,5.92,4.9h-3c-.06-1.45-1.17-2.23-3-2.23s-2.81.74-2.81,1.85c0,1.35,1.56,1.62,3.41,1.92,2.58.43,5.72.93,5.72,4.7,0,3-2.48,4.89-6.2,4.89S674.24,229.59,674.16,226.42Z"/></g></g></g></svg>