<svg xmlns="http://www.w3.org/2000/svg" viewBox="0 0 524.5 718.38"><defs><style>.cls-1{isolation:isolate;}.cls-2{mix-blend-mode:multiply;opacity:0.1;}</style></defs><g class="cls-1"><g id="Layer_2" data-name="Layer 2"><g id="Layer_1-2" data-name="Layer 1"><ellipse class="cls-2" cx="262.25" cy="675.27" rx="262.25" ry="43.12"/><path d="M522.88,497.63c-3.87-11.59-13.83-21.2-20-31.21-11.49-18.71-7.22-40.82-2.86-60.94,5.13-23.65,5.16-35.37,7.18-59.49a561.36,561.36,0,0,0-5.38-137.33c-7.28-44.53-21.63-87.46-30-131.74-4.89-25.78-13.89-47.9-24-71.84-3-7.18-5.27-6.09-8.91-.83-16.09,23.22-29.59,48.3-42,73.89-3.22,6.67-35,75.38-31.65,76.37-18.12-5.29-44.73-14.11-98.63-14.11-50.17,0-75.12,7.26-93.6,14.11.12,0-7.72-18.79-8.34-20-18-36.14-36.2-72.26-57.06-106.63C105.09,23.58,95.79,1,89.27,4.58c-12,6.68-16.63,34.53-20,46.89-14.12,51.61-28.11,105.8-35,159.06-8.73,67.63-12.43,135.69-4.61,203.61,1.21,10.46,3.1,22.79.43,33-4.19,16-19.46,26.52-25,42-5.4,15,4.52,27.26,18.86,28.17,3.61.23,34.58-8.13,33.51-13.31,1.55,7.46,2.56,13,3.86,18.51,8.29,34.86,41.32,139.89,70.34,156.55,18.67,10.72,34-.17,34.25-22.72,0-3.69-.38-7.37-.65-12.06,0,0,46,18.47,101.45,18.47,58.81,0,106.49-18.47,106.49-18.47-.27,4.69-.69,8.37-.65,12.06.21,22.55,15.58,33.44,34.25,22.72,17.31-9.94,26.48-34.55,33.37-52.78,10.06-26.64,20.58-66.82,27.16-94.61,1.3-5.48,2.31-11,3.86-18.51-.61,2.93,26,12.45,29,12.88,10.55,1.48,22-1.82,24-14.5A29.31,29.31,0,0,0,522.88,497.63ZM188.56,300.34A29.36,29.36,0,0,1,217.67,330c0,16.36-13,29.62-29.11,29.62a29.62,29.62,0,0,1,0-59.23ZM118.42,455l-9.37-3.71s3.57-12.56,4.86-17.24l13.25-40.57,23.71,69.12C136.74,460.14,128.78,458.27,118.42,455Zm38.8,8.67c10-19.57,29.42-48.27,38.35-64.12l6.54,17.77c5.65,16.72,13,35.7,17.79,53C197,469,175.79,466.7,157.22,463.7ZM273.37,472c-15.49,0-30.54-.4-45-1.14l41.94-71c11.33,23.78,22.31,47.72,33.3,71.66Q288.83,472,273.37,472Zm39.64-.87c11.77-25,20.77-50.2,31.66-71.3,11,25.4,16.85,40.6,28.55,66.21C354.92,468.44,334.63,470.18,313,471.15Zm39.85-111.58c-16.08,0-29.11-13.26-29.11-29.62a29.12,29.12,0,1,1,29.11,29.62ZM433,453.92c-13.46,4.23-30.49,7.9-50.14,10.8l41.26-71.21,9.67,59.11A5.59,5.59,0,0,1,433,453.92Z"/></g></g></g></svg>